<?xml version="1.0" standalone="no"?>
<!DOCTYPE svg PUBLIC "-//W3C//DTD SVG 20010904//EN"
 "http://www.w3.org/TR/2001/REC-SVG-20010904/DTD/svg10.dtd">
<svg version="1.0" xmlns="http://www.w3.org/2000/svg"
 width="900.000000pt" height="900.000000pt" viewBox="0 0 900.000000 900.000000"
 preserveAspectRatio="xMidYMid meet">
<metadata>
Created by potrace 1.14, written by Peter Selinger 2001-2017
</metadata>
<g transform="translate(0.000000,900.000000) scale(0.100000,-0.100000)"
fill="#000000" stroke="none">
<path d="M4150 7778 c-61 -23 -35 2 -996 -948 -323 -320 -511 -513 -530 -545
-25 -43 -29 -60 -29 -125 0 -84 21 -140 74 -196 16 -17 159 -141 318 -275 158
-134 306 -263 329 -286 46 -46 17 18 466 -1078 149 -363 279 -677 289 -697 29
-56 75 -104 122 -127 71 -34 3508 -1101 3568 -1108 167 -17 311 130 297 305
-3 38 -130 448 -381 1232 -206 646 -449 1405 -538 1685 -89 281 -173 534 -187
563 -29 60 -108 140 -170 171 -23 12 -158 67 -300 122 -141 55 -517 204 -835
331 -530 212 -582 234 -628 276 -28 25 -160 172 -294 327 -134 155 -265 301
-291 324 -80 70 -182 88 -284 49z m209 -828 l100 -115 -441 -435 c-242 -239
-446 -436 -452 -438 -6 -1 -51 32 -101 74 -49 42 -103 88 -120 101 l-30 26
465 457 c256 252 468 455 472 452 4 -4 52 -59 107 -122z m1329 -780 c496 -197
736 -298 751 -314 15 -16 63 -151 152 -427 348 -1083 529 -1657 529 -1677 0
-26 -16 -29 -29 -4 -19 34 -1622 1608 -1664 1632 -36 22 -54 25 -132 25 -78 0
-97 -4 -140 -27 -98 -51 -148 -135 -149 -248 -2 -128 -36 -89 872 -986 449
-443 819 -810 820 -815 2 -5 -3 -9 -12 -9 -8 0 -223 65 -478 144 -255 79 -719
224 -1033 321 -313 98 -582 184 -597 191 -15 8 -34 24 -42 37 -8 12 -84 193
-169 402 -85 209 -214 524 -286 699 -72 175 -131 333 -131 350 0 28 51 82 481
506 435 429 497 487 521 489 4 1 335 -129 736 -289z"/>
<path d="M1143 1720 c-53 -12 -121 -58 -152 -103 -76 -112 -65 -244 29 -338
88 -88 -280 -79 3500 -77 l3355 3 47 27 c128 76 172 217 107 347 -30 61 -61
91 -129 127 -34 18 -134 19 -3380 21 -1840 0 -3359 -2 -3377 -7z"/>
</g>
</svg>
