<?xml version="1.0" encoding="utf-8"?>
<!-- Generator: Adobe Illustrator 27.3.1, SVG Export Plug-In . SVG Version: 6.00 Build 0)  -->
<svg version="1.1"
	 id="svg2" xmlns:inkscape="http://www.inkscape.org/namespaces/inkscape" xmlns:sodipodi="http://sodipodi.sourceforge.net/DTD/sodipodi-0.dtd" xmlns:svg="http://www.w3.org/2000/svg" xmlns:cc="http://creativecommons.org/ns#" xmlns:dc="http://purl.org/dc/elements/1.1/" xmlns:rdf="http://www.w3.org/1999/02/22-rdf-syntax-ns#" inkscape:output_extension="org.inkscape.output.svg.inkscape" inkscape:version="0.46" sodipodi:docname="Logo PS Suisse.svg"
	 xmlns="http://www.w3.org/2000/svg" xmlns:xlink="http://www.w3.org/1999/xlink" x="0px" y="0px" viewBox="0 0 500 528.8"
	 style="enable-background:new 0 0 500 528.8;" xml:space="preserve">
<style type="text/css">
	.st0{fill-rule:evenodd;clip-rule:evenodd;}
</style>
<g>
	<g id="path2424">
		<path d="M353.1,30c0.3,0,0.5,0,0.8,0l0.1,0l0.1,0c0.2,0,0.4,0,0.6,0l0.1,0l0.1,0c0.4,0,0.8,0.1,1.4,0.1c0.2,0,0.4,0,0.5,0.1l0.2,0
			c0.6,0.1,1.1,0.2,1.6,0.3l0.1,0l0.1,0c0.2,0,0.4,0.1,0.5,0.1c0.5,0.1,1,0.3,1.5,0.5l0.1,0l0.3,0.1l0.2,0.1l0.2,0.1
			c0.4,0.2,0.9,0.4,1.3,0.6c0.2,0.1,0.4,0.2,0.6,0.3c0.2,0.1,0.3,0.1,0.4,0.2l0,0l0,0c30.3,16.5,60.6,33,90.9,49.5l0,0.1l0.3,0.2
			l0.2,0.1c9,4.3,14.6,14.3,14.5,26.3l-0.6,307c0,10-3.9,20.3-10.6,28.5c-6.4,7.8-15,13-23.5,14.2l-284.4,40
			c-1.3,0.2-2.5,0.3-3.8,0.3c-4.1,0-8-1-11.4-2.9l0,0C108.8,481.3,82,466.7,55.1,452l-11.7-6.4C35,441.1,30,431.5,30,419.9l0.6-307
			c0-1.2,0.1-2.4,0.2-3.6l0-0.2c0.1-0.4,0.1-0.9,0.2-1.3l0.1-0.8c0.1-0.6,0.2-1.3,0.2-1.6c0-0.2,0.1-0.3,0.1-0.5
			c0.1-0.4,0.2-0.7,0.3-1.1c0.1-0.3,0.1-0.6,0.2-0.9c0.1-0.5,0.2-1,0.3-1.3c0.1-0.2,0.1-0.4,0.2-0.5c0.1-0.4,0.2-0.7,0.4-1.1
			c0.1-0.3,0.2-0.6,0.3-1c0.1-0.3,0.2-0.6,0.2-0.8c0,0,0-0.1,0-0.1l0-0.1c0.1-0.3,0.3-0.7,0.4-1c0.4-1.1,0.7-1.8,1-2.5
			c0.1-0.2,0.2-0.5,0.4-0.7l0.2-0.4c0.2-0.4,0.3-0.7,0.5-1.1c0,0,0,0,0,0c0.1-0.2,0.3-0.5,0.5-0.8c0.8-1.5,1.6-2.8,2.4-4
			c0.2-0.2,0.4-0.5,0.6-0.8c0.8-1,1.6-2.1,2.5-3.2c0.1-0.1,0.2-0.3,0.3-0.4c0.2-0.2,0.3-0.4,0.5-0.6c0.8-0.9,1.7-1.8,2.6-2.6
			c0.3-0.3,0.5-0.5,0.7-0.7l0,0c1.2-1,2.4-2,3.7-2.9c0.2-0.2,0.4-0.3,0.6-0.4c0.1,0,0.1-0.1,0.2-0.1c0.2-0.1,0.5-0.3,0.7-0.4
			l0.1-0.1l0.1-0.1l0.5-0.4c0.2-0.1,0.3-0.2,0.5-0.3c0.6-0.4,1.4-0.8,2.1-1.1c0.4-0.2,0.7-0.4,1.1-0.6c0.1,0,0.1-0.1,0.2-0.1
			c0.6-0.3,1.4-0.6,2.3-0.9c0.1,0,0.2-0.1,0.3-0.1l0.4-0.1c0.7-0.2,1.4-0.5,2.1-0.7c0.2,0,0.3-0.1,0.5-0.1c0.1,0,0.2-0.1,0.3-0.1
			l0,0l0,0c1.1-0.3,2-0.4,2.8-0.6l284.4-40c0.7-0.1,1.5-0.2,2.4-0.2l0.3,0c0.2,0,0.4,0,0.6,0C352.6,30,352.8,30,353.1,30 M353.1,10
			c-0.4,0-0.8,0-1.2,0c-0.4,0-0.9,0-1.3,0c-1.4,0.1-2.8,0.2-4.2,0.4l-284.4,40c-1.6,0.2-3.1,0.5-4.7,0.9c-0.4,0.1-0.9,0.2-1.3,0.3
			c-1.2,0.3-2.4,0.7-3.5,1.1c-0.4,0.1-0.8,0.3-1.1,0.4c-1.4,0.5-2.8,1.1-4.2,1.7c-0.1,0-0.1,0.1-0.2,0.1c-0.4,0.2-0.8,0.4-1.2,0.6
			c-1.1,0.6-2.2,1.1-3.3,1.8c-0.5,0.3-1.1,0.7-1.6,1c-0.7,0.4-1.4,0.8-2,1.3c-0.2,0.1-0.3,0.2-0.4,0.4c-1.9,1.3-3.7,2.8-5.5,4.3
			c-0.1,0.1-0.2,0.2-0.3,0.3c-0.3,0.3-0.5,0.6-0.8,0.8c-1.3,1.2-2.5,2.4-3.7,3.7c-0.2,0.3-0.5,0.5-0.8,0.8c-0.2,0.2-0.4,0.5-0.6,0.7
			c-1.3,1.5-2.5,3-3.6,4.6c-0.1,0.2-0.3,0.4-0.4,0.6c0,0,0,0.1-0.1,0.1c-1.3,1.9-2.6,3.9-3.7,6c-0.1,0.2-0.3,0.4-0.4,0.7
			c-0.3,0.6-0.6,1.3-1,1.9c-0.3,0.6-0.6,1.1-0.8,1.7c-0.5,1.2-1,2.4-1.5,3.6c-0.2,0.4-0.4,0.8-0.5,1.2c0,0.1-0.1,0.2-0.1,0.2
			c-0.3,0.9-0.6,1.8-0.9,2.8c-0.2,0.8-0.5,1.5-0.7,2.3c-0.3,1-0.5,2.1-0.7,3.2c-0.2,0.7-0.4,1.5-0.5,2.2c-0.2,1.2-0.4,2.4-0.5,3.6
			c-0.1,0.7-0.2,1.3-0.3,2c-0.2,1.9-0.3,3.7-0.3,5.6l-0.6,307c0,19.6,9.5,35.6,23.9,43.4c30.8,16.8,61.7,33.6,92.5,50.3
			c-0.2-0.1-0.3-0.2-0.5-0.3c6.3,3.5,13.5,5.5,21.2,5.5c2.1,0,4.3-0.2,6.6-0.5l284.4-40c28.2-4,51.2-32.1,51.3-62.5l0.6-307
			c0-20.6-10.5-37.2-26.2-44.5c0,0,0,0,0,0c0,0,0,0,0,0c0,0,0.1,0,0.1,0c0.7,0.3,1.4,0.6,2,1c-30.8-16.8-61.6-33.5-92.4-50.3
			c-0.5-0.3-1-0.6-1.6-0.8c-0.2-0.1-0.4-0.2-0.6-0.3c-0.9-0.4-1.7-0.8-2.6-1.1c-0.3-0.1-0.7-0.3-1-0.4c-1.2-0.5-2.5-0.8-3.8-1.2
			c0,0-0.1,0-0.1,0c-0.2,0-0.4-0.1-0.6-0.1c-1-0.3-2.1-0.5-3.2-0.7c-0.4-0.1-0.9-0.1-1.3-0.2c-0.9-0.1-1.8-0.2-2.7-0.3
			c-0.5,0-1-0.1-1.5-0.1C354.2,10,353.6,10,353.1,10L353.1,10z M466,65.4c0,0,0.1,0.1,0.1,0.1C466.1,65.5,466,65.4,466,65.4
			L466,65.4z M126.4,513.6C126.4,513.6,126.4,513.6,126.4,513.6C126.4,513.6,126.4,513.6,126.4,513.6L126.4,513.6z"/>
	</g>
	<path id="path2430" class="st0" d="M182.5,239.2c0-22.2-15.9-33.3-38.1-33.3H92l-1.6,1.6v107.9L92,317h19l1.6-1.6v-41.3l1.6-1.6
		h30.1C166.6,272.6,182.5,261.5,182.5,239.2z M160.2,239.2c0,11.1-6.4,14.3-15.9,14.3h-30.1l-1.6-1.6v-25.4l1.6-1.6h30.1
		C153.9,225,160.2,228.1,160.2,239.2z"/>
	<path id="path2436" class="st0" d="M284.8,285.3c0-22.2-17.5-31.7-39.7-34.9c-22.2-3.2-28.6-6.4-28.6-15.9c0-6.3,4.8-11.1,19-11.1
		c17.5,0,22.2,4.8,22.2,14.3l1.6,1.6h19l1.6-1.6c0-19-12.7-33.3-42.8-33.3c-30.1,0-42.8,14.3-42.8,30.1c0,22.2,17.5,30.1,39.7,33.3
		c22.2,3.2,28.6,6.3,28.6,17.5c0,9.5-7.9,14.3-22.2,14.3c-19,0-25.4-6.4-25.4-17.5l-1.6-1.6h-19l-1.6,1.6c0,20.6,14.3,36.5,46,36.5
		C272.1,318.6,284.8,302.7,284.8,285.3z"/>
	<path id="path2442" d="M351.1,284.9L351.1,284.9L351.1,284.9C351.1,284.9,351.1,284.9,351.1,284.9z M407.1,253.1L407,253
		L407.1,253.1C407.1,253.1,407.1,253.1,407.1,253.1z M396.9,248.6L396.9,248.6L396.9,248.6L396.9,248.6z M351.1,284.9L351.1,284.9
		L351.1,284.9L351.1,284.9z M379.1,272.6L379.1,272.6L379.1,272.6C379.1,272.6,379.1,272.6,379.1,272.6z M365.7,253.6L365.7,253.6
		L365.7,253.6C365.7,253.6,365.7,253.6,365.7,253.6z M403.6,235.1L403.6,235.1L403.6,235.1L403.6,235.1z M406.2,267.6l-0.1,0.1
		L406.2,267.6L406.2,267.6z M360.6,273.2h0.2H360.6L360.6,273.2z M409,266.3l0.1-0.1L409,266.3z M362,229.4L362,229.4L362,229.4
		C362,229.4,362,229.4,362,229.4z M409,254L409,254l0.1,0.1L409,254z M353,290.2L353,290.2L353,290.2L353,290.2z M406.5,259.1
		l0.1,0.2L406.5,259.1C406.5,259.1,406.5,259.1,406.5,259.1z M375.3,287.4L375.3,287.4L375.3,287.4L375.3,287.4z M351.4,295.9
		L351.4,295.9L351.4,295.9L351.4,295.9z M357.1,272.3L357.1,272.3l-0.1,0.1L357.1,272.3C357.1,272.3,357.1,272.3,357.1,272.3z
		 M376.7,218.4L376.7,218.4L376.7,218.4C376.7,218.4,376.7,218.4,376.7,218.4z M379.9,222.9L379.9,222.9L379.9,222.9
		C379.9,222.9,379.9,222.9,379.9,222.9z M356.4,262.2l0,0.2L356.4,262.2L356.4,262.2z M357.1,258.1l-0.1,0.2L357.1,258.1
		L357.1,258.1z M350,263l0,0.2L350,263L350,263z M377.8,236.7L377.8,236.7L377.8,236.7L377.8,236.7z M350,263l-0.1-0.1L350,263
		C350,263,350,263,350,263z M391,217.1L391,217.1L391,217.1C391,217.1,391,217.1,391,217.1z M377.8,279.2L377.8,279.2L377.8,279.2
		C377.8,279.2,377.8,279.2,377.8,279.2z M391,217.1L391,217.1L391,217.1C391,217.1,391,217.1,391,217.1z M370.4,252.1L370.4,252.1
		L370.4,252.1L370.4,252.1z M379.7,273.9L379.7,273.9L379.7,273.9L379.7,273.9z M375.1,216L375.1,216L375.1,216L375.1,216z
		 M349.8,266.8l-0.1,0.1L349.8,266.8C349.8,266.8,349.8,266.8,349.8,266.8z M397.4,217.4L397.4,217.4L397.4,217.4
		C397.4,217.4,397.4,217.4,397.4,217.4z M374.7,301.6L374.7,301.6L374.7,301.6C374.7,301.6,374.7,301.6,374.7,301.6z M402.4,267.6
		l0.2-0.1L402.4,267.6L402.4,267.6z M374.1,299.3L374.1,299.3L374.1,299.3L374.1,299.3z M415.6,289.3L415.6,289.3L415.6,289.3
		L415.6,289.3z M412.8,265.2L412.8,265.2l-0.1,0c-1.3-1.2-1.8-1.9-1.7-2.5c0.2-0.6,1-0.6,1.9-0.6c1.8,0.1,4.5,0.6,5.2,0.3l0.2,0.3
		C416.9,264.3,414.7,264.9,412.8,265.2z M415.5,289.3L415.5,289.3L415.5,289.3c0.8,0.1,1.9-0.1,2.8-0.1c0.5,0,0.9,0.1,1.2,0.3
		c0.3,0.2,0.5,0.6,0.5,1.1v24.3h-10.3l0.1-0.1C415.5,307.8,414.9,298.4,415.5,289.3z M412,254.9l0.1-0.2l0.2,0.1l5.4,3.8l0.3,0.2
		l-0.3,0.1c-1,0.3-2.1,0.4-3.3,0.4c-1.2,0-2.5-0.1-3.7-0.1h-0.1l0-0.1C410.1,257.7,411.4,256.2,412,254.9z M409.1,302.5L409.1,302.5
		c-0.3,2.2-1,4.5-3.2,5.7v0c-0.4,0.1-0.8,0.2-1.3,0.3c-0.1,0-0.2,0-0.3,0.1c-0.4,0-0.9,0.1-1.3,0.1c0,0-0.1,0-0.1,0
		c-0.1,0-0.2,0-0.4,0c-0.2,0-0.3,0-0.5,0c-0.2,0-0.3,0-0.5-0.1c-0.2,0-0.4-0.1-0.6-0.1c-0.2,0-0.3-0.1-0.5-0.1
		c-0.2-0.1-0.4-0.1-0.6-0.2c-0.1,0-0.3-0.1-0.4-0.1c-0.3-0.1-0.6-0.3-0.8-0.4c-8.2-6-2.9-18.3-5.4-26.8l0,0
		c-0.3-0.5-0.8-0.9-1.4-1.1c-0.6-0.2-1.2-0.2-1.6,0.2l0,0l-1.2,1.9c-1.2,7.8,1.6,16.3-1.6,23.6h0v0c-0.4,0.3-0.9,0.5-1.4,0.7
		c-0.1,0.1-0.3,0.1-0.4,0.2c-0.3,0.1-0.7,0.3-1.1,0.4c-0.2,0.1-0.4,0.1-0.6,0.1c-0.3,0.1-0.7,0.1-1.1,0.2c-0.2,0-0.4,0-0.6,0
		c-0.1,0-0.2,0-0.3,0c-0.4,0-0.8,0-1.3-0.1h-0.1v-0.1c1.3-11.3-5.4-27.7,7-34.7c5.4-2.2,13-2.8,17.7,0.6v0
		C412.2,280.5,408.4,292.8,409.1,302.5z M400.9,314.2c-0.7,2.9-4.1,4.1-6.6,5.4c-0.6,0.2-1.2,0.3-1.8,0.4c-0.1,0-0.3,0-0.4,0.1
		c-1.1,0.2-2.2,0.3-3.3,0.3c-0.1,0-0.2,0-0.3,0c-0.8,0-1.6-0.1-2.5-0.2c0,0-0.1,0-0.1,0c-0.8-0.1-1.7-0.3-2.5-0.5
		c-0.3-0.1-0.5-0.1-0.7-0.2c-0.6-0.2-1.2-0.4-1.8-0.6c-0.2-0.1-0.5-0.2-0.7-0.3c-0.8-0.3-1.5-0.6-2.2-1l-0.1,0l0.1-0.1
		c1.9-1.6,3.8-3.4,4.4-5.6v0h0c3.5-0.3,6.9-0.9,8.8-4.4l0.1-0.1l0.1,0.1C393,310.9,397.1,313.4,400.9,314.2L400.9,314.2L400.9,314.2
		z M377.6,311L377.6,311L377.6,311c-0.7,0.5-1.4,1-2.1,1.4c-0.2,0.1-0.3,0.2-0.5,0.3c-0.5,0.3-1.1,0.7-1.6,1
		c-0.2,0.1-0.5,0.2-0.7,0.4c-0.5,0.3-0.9,0.5-1.4,0.8c-0.3,0.1-0.6,0.3-0.8,0.4c-0.4,0.2-0.9,0.4-1.3,0.6c-0.3,0.1-0.6,0.2-0.9,0.3
		c-0.4,0.2-0.9,0.3-1.3,0.5c-0.3,0.1-0.7,0.2-1,0.3c-0.4,0.1-0.8,0.2-1.3,0.3c-0.4,0.1-0.7,0.1-1.1,0.2c-0.4,0.1-0.8,0.1-1.3,0.2
		c-0.4,0-0.8,0.1-1.2,0.1c-0.3,0-0.5,0-0.8,0c-0.3,0-0.7,0-1,0c-1.3-0.3-1.9-1.3-2.3-2.3c-0.5-1.3-0.1-2.1,0.7-2.7
		c0.7-0.6,1.7-1,2.5-1.5h0c5-1.6,10.1-3.8,15.7-3.5h0l1.3,0.6C378,309.1,377.6,310.4,377.6,311z M353.9,308.5L353.9,308.5
		c-1.3-0.3-2.3-1.6-2.6-2.9v0c0-1.6,0.7-3.2,2.5-3.8h0c6-1.2,11.6-4.1,18.3-3.8h0v0l1.9,1.2v0c0.6,0.6,1.3,1.6,0.7,2.3h0v0
		C368.1,305.1,361.5,308.5,353.9,308.5z M351.4,291.8L351.4,291.8l1.6-1.6h0c7.6-0.9,14.8-1.9,22.3-2.8h0l0,0.1l0.6,1.2v0
		c0,2.2-1.2,4.5-3.5,5.4c-1,0.3-2.1,0.6-3.2,0.8c-0.3,0.1-0.6,0.1-0.9,0.2c-0.9,0.2-1.9,0.4-2.9,0.6c-0.2,0-0.3,0.1-0.5,0.1
		c-1.1,0.2-2.2,0.3-3.4,0.5c-0.3,0-0.6,0-0.8,0.1c-0.9,0.1-1.9,0.1-2.8,0.1c-0.2,0-0.4,0-0.5,0c-0.1,0-0.2,0-0.3,0
		c-0.7,0-1.3,0-2-0.1c-0.3,0-0.6,0-0.9,0c-1-0.1-1.9-0.2-2.9-0.4h0v0C350.1,294.6,350.7,293,351.4,291.8z M351,284.9
		c-0.3-2,1.9-3.8,3.5-4.8c7.6-4.1,16.1-5.7,24.6-7.6l0.1,0l0,0.1l0.6,1.2v0c0.3,2.2-0.3,4.1-1.9,5.4v0c-7.2,3.8-14.8,6.9-23,7.9
		C353.3,287.1,351.7,286.5,351,284.9L351,284.9z M352.5,269.4c-0.2-0.1-0.3-0.2-0.5-0.3c-0.1-0.1-0.2-0.1-0.3-0.2
		c-0.1-0.1-0.3-0.2-0.4-0.3c-0.1-0.1-0.2-0.1-0.3-0.2c-0.1-0.1-0.2-0.2-0.4-0.3c-0.1-0.1-0.2-0.2-0.3-0.2c-0.1-0.1-0.2-0.2-0.3-0.3
		c-0.1-0.1-0.1-0.1-0.2-0.2c-0.1-0.2-0.3-0.3-0.3-0.5l0-0.1v0l0.4-0.8c0.2-0.2,0.6-0.4,1.2-0.3c1.4-0.6,3.4,0,4.6,0h0.1l0,0.1
		c0.7,1.4-0.8,2.8-1.1,4l0,0.1l-0.1,0c-0.1,0-0.2,0-0.3,0c-0.1,0-0.1,0-0.2,0c-0.1,0-0.2,0-0.2,0c-0.1,0-0.3-0.1-0.4-0.1
		c-0.1,0-0.2-0.1-0.3-0.1c-0.2-0.1-0.3-0.1-0.5-0.2C352.7,269.5,352.6,269.5,352.5,269.4z M349.8,262.9c0.5-0.8,1.7-2,3.1-2.5
		c1.4-0.5,2.9-0.4,3.7,1.5v0.5h-0.2l-6.4,0.8l-0.4,0L349.8,262.9z M361.2,262C361.2,262,361.2,261.9,361.2,262
		c-0.3-0.1-0.4-0.2-0.6-0.4c0,0-0.1-0.1-0.1-0.1c-0.2-0.1-0.4-0.3-0.5-0.4c-1-1-2-2.2-3-2.8l-0.2-0.1l0.1-0.2
		c1.3-1.6,2.9-2.3,4.5-2.6l0.1,0l0.1,0.1c0.9,2.2,2.2,4.1,2.2,6.4v0.1l-0.1,0c-0.2,0.1-0.4,0.2-0.6,0.2c-0.1,0-0.2,0-0.2,0
		c-0.1,0-0.2,0-0.3,0c0,0-0.1,0-0.1,0c0,0-0.1,0-0.1,0c-0.2,0-0.3,0-0.5-0.1c-0.1,0-0.1,0-0.2,0C361.6,262.2,361.4,262.1,361.2,262z
		 M360.7,273.2v0.2l-0.2,0c-1.2-0.3-2.5,0-3.5-1l-0.1-0.1l0-0.1l2.5-6.8l0-0.1h0.1l1.8-0.4l0.2,0v0.2
		C361.9,267.7,361,270.7,360.7,273.2z M361.1,233.2l0.1,0.1c0,0-0.1,0-0.1,0.1c-0.6,5.6,0.4,11.5,4.5,15.3l0.1-0.1
		c1.2,1.6,3.5,2.5,4.8,3.4l0.1,0l-0.1,0.1c-0.2,0.2-0.4,0.4-0.7,0.5c-0.1,0-0.1,0.1-0.1,0.1c-0.3,0.2-0.6,0.3-0.9,0.4
		c-0.1,0-0.1,0-0.2,0.1c-0.3,0.1-0.7,0.2-1,0.3c0,0-0.1,0-0.1,0c-0.4,0.1-0.7,0.1-1.1,0.1c0,0,0,0,0,0c0,0,0,0,0,0
		c-0.2,0-0.4,0-0.7,0c-4.1-0.3-8.8-2.7-10.1-6.8C354,242.5,356.9,235.8,361.1,233.2z M360.6,225.4c0.9-3.4,2.2-7.3,6.5-8.9h0
		c1.8-0.4,4-0.5,4.6,0.9l0,0l0,0.1c-3.5,2.8-6.9,8.5-9.7,12l0,0h0c-0.7,0-1-0.9-1.2-1.8C360.6,226.7,360.6,225.7,360.6,225.4
		L360.6,225.4z M388.9,233.2h0.2l-0.2,0.1c0,0,0,0,0,0c-0.3,0.3-0.7,0.6-1,0.8c-0.1,0.1-0.2,0.2-0.4,0.3c-0.2,0.2-0.5,0.3-0.7,0.5
		c-0.1,0.1-0.3,0.2-0.4,0.3c-0.2,0.1-0.5,0.3-0.7,0.4c-0.2,0.1-0.3,0.2-0.5,0.2c-0.3,0.1-0.6,0.3-0.9,0.4c-0.1,0-0.2,0.1-0.3,0.1
		c-0.4,0.2-0.9,0.3-1.3,0.4c-0.1,0-0.2,0-0.3,0.1c-0.3,0.1-0.7,0.1-1,0.2c-0.2,0-0.3,0-0.5,0c-0.2,0-0.3,0-0.5,0c-0.2,0-0.3,0-0.5,0
		c-0.1,0-0.3,0-0.4,0c-0.5,0-1-0.1-1.5-0.2h0c-4.8-1.3-6.6-7-7-11.4v-0.2l0.1,0.1C376,230.4,381.6,233.2,388.9,233.2z M373,222.7
		l1.4-1.4l0.1-0.1l0,0.1c0.6,1.5,2.9,3.4,5.1,4.1c1.9,0.6,3.7,0.8,5.9,0.5l0.2,0l-0.1,0.2c-1,1.3-3.1,2.6-4.4,2.9h0
		c-2.8-0.9-6.2-3.6-8.1-6.1V222.7L373,222.7z M380,222.9L380,222.9l-0.1,0c-1.3-0.7-3.5-3.2-3.2-4.6v0h0c0.7-0.7,4-1,5-1h0.1v0
		C382.4,219,380.9,221.6,380,222.9z M384.8,209c1.9-0.3,4.1,0,6,0.9h0c1,0.9,1.6,2.3,2,3.6v0.1h-0.1c-1.5,0-3,1.6-4.6,2.2h0
		c-3.8-0.3-9.8-3.8-12.9,0.3L375,216C376,212.5,381,209.3,384.8,209z M397.4,217.3L397.4,217.3l3.4,1.6c3.2,2.6,3.7,8.1,4,11.6
		l0,0.1l-0.1,0c-2.1-0.7-4-3.2-4.9-4.8c-2.2-3.1-6-6.3-8.8-8.5l-0.1-0.1l0.1,0C392.6,216.4,395.8,217,397.4,217.3z M386,229.7
		c0.9-2.2,3.1-4.4,4-6.6l0.7-2.3l0.1-0.2l0.1,0.2c0.9,1.9,1.2,6.2,0.6,8.4l0,0C390.3,229.9,387.3,229.8,386,229.7L386,229.7
		L386,229.7z M384.4,218.5l0-0.1l0.1,0c0.9,0.3,2.8,1.9,2.6,3.5c-0.7,1.5-2.7,2.2-4.3,2.2h-0.1l0-0.1
		C383.3,222.4,384.7,220.4,384.4,218.5z M372.5,257.2l0.4,0.2c1.3,0.7,2.3,2.3,3.2,3.5l0.1,0.1l0,0.1c-0.2,0.4-0.6,0.4-0.8,0.4
		l-0.8,0l-0.1,0.1l-0.1-0.2l-1.6-3.8L372.5,257.2z M370.9,264.6c1.8,0,3.7-0.6,5.7,0l0.1,0.1v0.1c-0.3,2-1.9,3.9-3.5,5.1l-0.1,0.1
		l-0.1-0.1c-1-1.3-1.9-3.2-2.2-5.1l0-0.2H370.9z M369.5,272l-0.1,0.1c-0.2,0.2-0.4,0.3-0.7,0.4c-0.1,0-0.1,0.1-0.2,0.1
		c-0.2,0.1-0.5,0.2-0.7,0.3c0,0-0.1,0-0.1,0c-0.3,0.1-0.6,0.2-0.9,0.2c-0.1,0-0.2,0-0.2,0c-0.2,0-0.5,0.1-0.7,0.1c0,0-0.1,0-0.2,0
		c0,0-0.1,0-0.1,0c-0.2,0-0.3,0-0.5,0c-0.1,0-0.2,0-0.3,0c-0.2,0-0.5-0.1-0.7-0.2l-0.2-0.1l0.1-0.2c0.9-2.1,0-5.9,1.6-7.9l0-0.1h1.5
		l0,0.1L369.5,272L369.5,272z M367.2,262.1h-0.1l0-0.1c-1.3-2-1.6-4.5-2.2-6.7l-0.1-0.2l0.2,0c2-0.3,3.1,0.8,4,2.1
		c0.8,1.3,1.4,3,2.1,3.9l0.2,0.2l-0.3,0L367.2,262.1z M382.5,250.2c-0.1,0-0.2,0-0.3,0c-0.7,0.1-1.5,0.1-2.2,0.1c-0.1,0-0.1,0-0.2,0
		c-0.1,0-0.2,0-0.3,0c-0.3,0-0.5,0-0.8,0c-0.2,0-0.4,0-0.6,0c-0.3,0-0.5,0-0.8-0.1c-0.2,0-0.4,0-0.6-0.1c-0.3,0-0.5-0.1-0.8-0.1
		c-0.2,0-0.4-0.1-0.5-0.1c-0.3-0.1-0.6-0.1-0.8-0.2c-0.2,0-0.3-0.1-0.5-0.1c-0.3-0.1-0.5-0.2-0.8-0.3c-0.1,0-0.3-0.1-0.4-0.1
		c-0.3-0.1-0.5-0.2-0.8-0.3c-0.1,0-0.2-0.1-0.3-0.2c-0.3-0.1-0.5-0.3-0.8-0.4c-0.1-0.1-0.2-0.1-0.2-0.1c-0.3-0.2-0.7-0.4-0.9-0.7
		c-5.1-3.2-5.5-9.4-4.5-14.7c0.3-1.3,0.8-3.3,1.6-4.5l0.1-0.1l0.1,0.1c2.2,4.4,3.8,10.1,8.2,13.6c4.1,3.1,9.1,5.3,13.8,6.6l0.2,0
		l-0.2,0.1c-0.6,0.3-1.2,0.5-1.8,0.7c0,0-0.1,0-0.1,0.1c-0.6,0.2-1.3,0.4-2,0.5c-0.1,0-0.2,0-0.3,0.1
		C384,250,383.3,250.1,382.5,250.2z M378.9,253.1L378.9,253.1l0.1-0.1c0.8-0.7,2-0.4,3.3-0.4h0.1l0,0.1c0.6,5.4,0.3,11.7,0,17v0.1
		l-0.1,0c-0.7,0.2-1.6,0.3-2.3,0.2c-0.2,0-0.4-0.1-0.6-0.2l-0.1-0.1v-0.1L378.9,253.1z M388.7,264.2v0.7h-0.2c-1,0-2.6-1-3.3-2.3
		l-0.2-0.3l0.4,0.1c0.6,0.1,1.6,0,2.4,0.1c0.4,0.1,0.7,0.1,0.9,0.5C389,263.2,388.9,263.6,388.7,264.2z M388.1,259.2L388.1,259.2
		l-3.2,0.1l0.1-0.2c0.7-2.3,2.5-4.8,4.8-5.5l0.3-0.1l-0.1,0.3C389.7,255.6,389.3,257.6,388.1,259.2z M394.2,244.3L394.2,244.3
		c-0.6,0.1-1.2,0.1-1.9,0.1c-0.1,0-0.1,0-0.2,0c-0.3,0-0.6,0-0.9,0c-0.1,0-0.2,0-0.3,0c-0.5,0-1.1-0.1-1.6-0.2c0,0-0.1,0-0.1,0
		c-0.5-0.1-1-0.2-1.5-0.3c-0.1,0-0.3-0.1-0.4-0.1c-0.4-0.1-0.7-0.2-1.1-0.3c-0.2-0.1-0.3-0.1-0.5-0.2c-0.3-0.1-0.7-0.3-1-0.4
		c-0.2-0.1-0.3-0.1-0.5-0.2c-0.3-0.2-0.7-0.3-1-0.5c-0.1-0.1-0.3-0.1-0.4-0.2c-0.4-0.2-0.9-0.5-1.3-0.7c0,0,0,0,0,0c0,0,0,0,0,0
		l-0.1-0.1l0.1-0.1c6-1.9,13.9-6.2,14.2-13.7v-0.2l0.1,0.1c2.8,2.2,3.3,6,3.3,9.5C398.5,239.6,397.7,243.3,394.2,244.3z
		 M391.8,258.6l0-0.2c0.3-1,0.4-2.7,0.8-4.1c0.4-1.4,1.3-2.6,3.1-2.6h0.2l0,0.2c-0.3,2.6-1.2,5.1-2.8,7l-0.1,0.1l-0.1,0l-1-0.3
		L391.8,258.6z M391.8,262.7l0.1,0c1.5-0.3,2.4,0.6,3,1.6c0.6,1.1,1,2.4,1.6,3.1l0.2,0.2l-0.3,0.1c-0.3,0.1-0.6,0.1-0.9,0.1
		c-0.1,0-0.1,0-0.2,0c-0.1,0-0.3,0-0.4,0c-0.2,0-0.5-0.1-0.7-0.1c-0.1,0-0.3-0.1-0.4-0.1c-0.2-0.1-0.5-0.1-0.7-0.2
		c-0.1,0-0.2-0.1-0.3-0.1c-0.3-0.1-0.6-0.3-0.9-0.4l-0.1-0.1V262.7z M402.6,267.6L402.6,267.6l-0.7,0.7l-0.1,0.1l-0.1,0l-1.3-0.3
		h-0.1l0-0.1c-0.6-1.5-2.2-3.1-2.2-5.1v-0.1l0.1,0c1-0.5,1.8-0.6,2.4-0.3c0.6,0.2,0.9,0.8,1.1,1.4c0.4,1.2,0.4,2.9,0.8,3.7
		L402.6,267.6z M400.9,259.2l-0.1,0.1l-0.1,0l-2.5-0.3l-0.2,0l0-0.2c0.6-2.5,0.9-5,2.9-7.3l0-0.1h0.1c0.7,0,1.4,0.2,1.9,0.6
		c0.5,0.4,0.7,1.1,0.2,1.9C402.5,255.7,402.2,257.6,400.9,259.2z M406.7,242.9L406.7,242.9c-0.3,1.9-2,3.7-3.9,4.6
		c-1.6,0.9-4,0.7-5.9,1.1l-0.1-0.1c0,0,0,0,0,0c0,0,0,0,0,0c4-3.2,5.9-9,6.6-13.4V235l0.1,0C405.8,236.4,407.4,240.4,406.7,242.9z
		 M409.2,266.3L409.2,266.3c-0.8,0.8-2.1,1.1-3,1.4l-0.1,0.1l-0.1-0.1c-0.9-1.6-1.6-3.8-1.3-5.5l0-0.1l0.1,0
		c1.8-0.6,2.7,0.1,3.2,1.2c0.5,1,0.7,2.4,1.1,2.9L409.2,266.3z M407,252.9h0.1c0.3,0,0.7-0.1,1.2,0c0.5,0.1,0.9,0.4,0.8,1.1v0.1
		c-0.7,1.8-0.6,4.4-2.6,5.1h-1.5v-0.1c-0.3-2.3,0.9-4.2,1.9-6.1L407,252.9z M429.1,259.1c-5-0.3-8.5-4.1-12.6-6.9h0
		c-0.9-1.4-3.3-2-5.1-2.9c-0.9-0.5-1.6-0.9-1.9-1.7c-0.3-0.7-0.1-1.6,0.8-2.8c1.2-4.1,1.2-8.7-2.2-11.8l0,0V233
		c1.9-5.6,0.3-12.9-4.7-16.9h0c-0.7-1.1-2.2-1.3-3.4-1.7c-1.2-0.4-2.3-1-2.3-2.7c-1.2-2.8-4.1-5-6.6-6c-6.9-1.9-14.1,0.6-18.5,6.6v0
		h0c-3.8,0-8.2,0.7-11,3.5h0c-4.4,3.7-5.9,9.7-4.4,15.3l0,0.1l0,0c-4.4,3.8-6.3,8.4-6.6,13.8c-0.3,3.8,2.2,6.2,2.8,9.4v0.1l0,0
		c-3.7,3.4-6.9,8.4-11.6,9.4l-0.2,0.9c0.1,0.3,0.2,0.6,0.2,0.9c5.4,0.7,7.9,6.4,11,9.8l0.1,0l-0.1,0.1c-2.2,2.2-5.7,3.8-5.9,6.9v0
		c-1.1,1.7-0.3,3.1,0.3,4.5c0.6,1.3,1.1,2.6-0.7,3.7c-0.9,2.2-1.2,5-0.3,7.1c2,1.1,2.1,2.5,1.8,4c-0.4,1.5-1.1,3-0.8,4.6v0
		c0,3.1,2.5,5.6,5,6.9h0.1v0.1c-0.3,2.8,1.2,5.9,3.4,7.5c4,3.1,10,0.9,14.4,0h0.1c0.6,0.4,1.2,0.8,1.8,1.1c0.2,0.1,0.4,0.2,0.6,0.3
		c0.5,0.2,0.9,0.5,1.4,0.7c0.2,0.1,0.4,0.2,0.6,0.3c0.6,0.3,1.2,0.5,1.8,0.8c0.1,0,0.2,0.1,0.3,0.1c0.7,0.3,1.4,0.5,2.1,0.7
		c0.2,0.1,0.4,0.1,0.7,0.2c0.5,0.2,1.1,0.3,1.6,0.4c0.2,0.1,0.5,0.1,0.7,0.2c0.6,0.1,1.2,0.3,1.8,0.4c0.2,0,0.3,0.1,0.5,0.1
		c0.7,0.1,1.5,0.2,2.3,0.3c0.2,0,0.4,0,0.7,0c0.6,0,1.1,0.1,1.7,0.1c0.3,0,0.5,0,0.8,0c0.7,0,1.3,0,2-0.1c0.1,0,0.3,0,0.4,0
		c0.8-0.1,1.5-0.2,2.3-0.3c0.2,0,0.4-0.1,0.6-0.1c0.6-0.1,1.2-0.3,1.7-0.4c0.2-0.1,0.4-0.1,0.7-0.2c0.7-0.2,1.5-0.5,2.2-0.8
		c6.3-7,17.4-2.5,25.8-4.1v-36.7c-3.4-0.9-6.9,0.7-10-0.6h0V283c0-4.4-1.3-8.1-3.2-11.9l0-0.1l0.1,0c4.1-1.9,7.9-4.1,11.6-6.9l0,0
		c0.8-1.1,2.8-1.3,4.3-1.7c0.7-0.2,1.3-0.5,1.6-1C429.6,260.9,429.6,260.2,429.1,259.1z M360.2,311.3L360.2,311.3L360.2,311.3
		L360.2,311.3z M351.4,305.6L351.4,305.6L351.4,305.6C351.4,305.6,351.4,305.6,351.4,305.6z M387.3,305.3L387.3,305.3L387.3,305.3
		C387.3,305.3,387.3,305.3,387.3,305.3z M405.8,308.2L405.8,308.2L405.8,308.2L405.8,308.2C405.9,308.2,405.9,308.2,405.8,308.2z
		 M405.2,272.9L405.2,272.9L405.2,272.9C405.2,272.9,405.2,272.9,405.2,272.9z M391.1,307.5L391.1,307.5L391.1,307.5
		C391.1,307.5,391.1,307.5,391.1,307.5z M391.1,307.5L391.1,307.5L391.1,307.5C391.1,307.5,391.1,307.5,391.1,307.5z M400.8,314.1
		L400.8,314.1L400.8,314.1L400.8,314.1z M353.3,254.4L353.3,254.4L353.3,254.4C353.3,254.4,353.3,254.4,353.3,254.4z M352.7,275.4
		L352.7,275.4L352.7,275.4z M352.7,275.4L352.7,275.4L352.7,275.4C352.7,275.4,352.7,275.4,352.7,275.4z M399.2,324.5L399.2,324.5
		L399.2,324.5z M409,302.5L409,302.5L409,302.5L409,302.5z M347,306.3L347,306.3L347,306.3C347,306.3,347,306.3,347,306.3z
		 M370,320.7L370,320.7L370,320.7L370,320.7z M412.8,265.1l-0.1,0.1L412.8,265.1L412.8,265.1z M416.5,252.2L416.5,252.2L416.5,252.2
		L416.5,252.2z M361.5,215.7L361.5,215.7L361.5,215.7C361.5,215.7,361.5,215.7,361.5,215.7z M353.3,254.4
		C353.3,254.4,353.3,254.4,353.3,254.4L353.3,254.4L353.3,254.4z M403.3,216L403.3,216L403.3,216L403.3,216z M408,233L408,233
		L408,233C408,233,408,233,408,233z M417.5,258.8l0.1-0.2L417.5,258.8L417.5,258.8z M393,258.8l0.1,0.1L393,258.8
		C393,258.8,393,258.8,393,258.8z M392,258.4l-0.2-0.1L392,258.4L392,258.4z M392.9,258.8l0,0.1L392.9,258.8L392.9,258.8z
		 M395.8,227.3L395.8,227.3L395.8,227.3L395.8,227.3z M396.4,267.6l0.1-0.1L396.4,267.6L396.4,267.6z M425,283.6L425,283.6
		L425,283.6L425,283.6z M400.5,267.9l0,0.2L400.5,267.9L400.5,267.9z M403,253.7L403,253.7L403,253.7z M398.3,258.8
		C398.3,258.8,398.3,258.8,398.3,258.8l-0.2-0.1L398.3,258.8z M401.1,251.5l-0.1-0.1L401.1,251.5
		C401.1,251.5,401.1,251.5,401.1,251.5z M389.8,253.7l0.1,0L389.8,253.7L389.8,253.7z M398.3,258.8v0.2V258.8L398.3,258.8z
		 M388.9,248.4L388.9,248.4L388.9,248.4L388.9,248.4z M364.3,272.9l0,0.2L364.3,272.9C364.3,272.9,364.3,272.9,364.3,272.9z
		 M364.3,272.9l-0.1-0.1L364.3,272.9C364.3,272.9,364.3,272.9,364.3,272.9z M386,229.8L386,229.8L386,229.8L386,229.8z M370.9,261.3
		l0,0.1L370.9,261.3L370.9,261.3z M379.4,269.8l-0.1,0.2L379.4,269.8C379.4,269.8,379.4,269.8,379.4,269.8z M382.3,269.8l0,0.2
		L382.3,269.8C382.3,269.8,382.3,269.8,382.3,269.8z M369.3,272l0.1,0.1L369.3,272z M384.5,218.5L384.5,218.5L384.5,218.5
		L384.5,218.5z M390,223.1L390,223.1L390,223.1L390,223.1z M376.6,264.7l0.2,0L376.6,264.7z M376.6,264.7l0-0.2L376.6,264.7
		L376.6,264.7z M425,320.4C425,320.4,425,320.4,425,320.4L425,320.4L425,320.4z M390.1,279.8L390.1,279.8L390.1,279.8
		C390.1,279.8,390.1,279.8,390.1,279.8z"/>
	<path d="M315.3,364.6c-1.2,0-2.2-1-2.2-2.2v-192c0-1.2,1-2.2,2.2-2.2s2.2,1,2.2,2.2v192C317.5,363.6,316.5,364.6,315.3,364.6z"/>
</g>
</svg>
